<?xml version="1.0" encoding="UTF-8" standalone="no"?>
<!DOCTYPE svg PUBLIC "-//W3C//DTD SVG 1.1//EN"
 "http://www.w3.org/Graphics/SVG/1.1/DTD/svg11.dtd">
<!-- Generated by graphviz version 2.47.3 (20210619.1520)
 -->
<!-- Title: dependencies Pages: 1 -->
<svg width="498pt" height="323pt"
 viewBox="0.00 0.00 498.00 322.80" xmlns="http://www.w3.org/2000/svg" xmlns:xlink="http://www.w3.org/1999/xlink">
<g id="graph0" class="graph" transform="scale(1 1) rotate(0) translate(4 318.8)">
<title>dependencies</title>
<polygon fill="white" stroke="transparent" points="-4,4 -4,-318.8 494,-318.8 494,4 -4,4"/>
<text text-anchor="middle" x="245" y="-8.2" font-family="sans-serif" font-size="14.00">dependencies</text>
<g id="clust1" class="cluster">
<title>cluster_AppBrowserModule</title>
<polygon fill="none" stroke="black" stroke-dasharray="1,5" points="8,-108.8 8,-306.8 338,-306.8 338,-108.8 8,-108.8"/>
</g>
<g id="clust3" class="cluster">
<title>cluster_AppBrowserModule_imports</title>
<polygon fill="none" stroke="black" points="16,-116.8 16,-168.8 330,-168.8 330,-116.8 16,-116.8"/>
</g>
<g id="clust5" class="cluster">
<title>cluster_AppBrowserModule_bootstrap</title>
<polygon fill="none" stroke="black" points="183,-246.8 183,-298.8 307,-298.8 307,-246.8 183,-246.8"/>
</g>
<g id="clust13" class="cluster">
<title>cluster_AppServerModule</title>
<polygon fill="none" stroke="black" stroke-dasharray="1,5" points="346,-181.8 346,-233.8 482,-233.8 482,-181.8 346,-181.8"/>
</g>
<g id="clust19" class="cluster">
<title>cluster_CoreModule</title>
<polygon fill="none" stroke="black" stroke-dasharray="1,5" points="210,-32.8 210,-100.8 348,-100.8 348,-32.8 210,-32.8"/>
</g>
<g id="clust20" class="cluster">
<title>cluster_CoreModule_declarations</title>
<polygon fill="none" stroke="black" points="218,-40.8 218,-92.8 340,-92.8 340,-40.8 218,-40.8"/>
</g>
<!-- !environment -->
<g id="node1" class="node">
<title>!environment</title>
<polygon fill="#8dd3c7" stroke="black" points="115.92,-160.8 112.92,-164.8 91.92,-164.8 88.92,-160.8 24.08,-160.8 24.08,-124.8 115.92,-124.8 115.92,-160.8"/>
<text text-anchor="middle" x="70" y="-138.6" font-family="Times,serif" font-size="14.00">!environment</text>
</g>
<!-- AppBrowserModule -->
<g id="node4" class="node">
<title>AppBrowserModule</title>
<polygon fill="#8dd3c7" stroke="black" points="264.58,-225.8 261.58,-229.8 240.58,-229.8 237.58,-225.8 133.42,-225.8 133.42,-189.8 264.58,-189.8 264.58,-225.8"/>
<text text-anchor="middle" x="199" y="-203.6" font-family="Times,serif" font-size="14.00">AppBrowserModule</text>
</g>
<!-- !environment&#45;&gt;AppBrowserModule -->
<g id="edge1" class="edge">
<title>!environment&#45;&gt;AppBrowserModule</title>
<path fill="none" stroke="black" d="M70,-160.91C70,-180.14 70,-207.8 70,-207.8 70,-207.8 123.37,-207.8 123.37,-207.8"/>
<polygon fill="black" stroke="black" points="123.37,-211.3 133.37,-207.8 123.37,-204.3 123.37,-211.3"/>
</g>
<!-- AppModule -->
<g id="node2" class="node">
<title>AppModule</title>
<polygon fill="#8dd3c7" stroke="black" points="217.66,-160.8 214.66,-164.8 193.66,-164.8 190.66,-160.8 134.34,-160.8 134.34,-124.8 217.66,-124.8 217.66,-160.8"/>
<text text-anchor="middle" x="176" y="-138.6" font-family="Times,serif" font-size="14.00">AppModule</text>
</g>
<!-- AppModule&#45;&gt;AppBrowserModule -->
<g id="edge2" class="edge">
<title>AppModule&#45;&gt;AppBrowserModule</title>
<path fill="none" stroke="black" d="M162.06,-160.91C162.06,-160.91 162.06,-179.79 162.06,-179.79"/>
<polygon fill="black" stroke="black" points="158.56,-179.79 162.06,-189.79 165.56,-179.79 158.56,-179.79"/>
</g>
<!-- AppServerModule -->
<g id="node6" class="node">
<title>AppServerModule</title>
<polygon fill="#8dd3c7" stroke="black" points="474.19,-225.8 471.19,-229.8 450.19,-229.8 447.19,-225.8 353.81,-225.8 353.81,-189.8 474.19,-189.8 474.19,-225.8"/>
<text text-anchor="middle" x="414" y="-203.6" font-family="Times,serif" font-size="14.00">AppServerModule</text>
</g>
<!-- AppModule&#45;&gt;AppServerModule -->
<g id="edge5" class="edge">
<title>AppModule&#45;&gt;AppServerModule</title>
<path fill="none" stroke="black" d="M189.94,-160.84C189.94,-168.55 189.94,-175.8 189.94,-175.8 189.94,-175.8 414,-175.8 414,-175.8 414,-175.8 414,-179.56 414,-179.56"/>
<polygon fill="black" stroke="black" points="410.5,-179.56 414,-189.56 417.5,-179.56 410.5,-179.56"/>
</g>
<!-- CoreModule -->
<g id="node3" class="node">
<title>CoreModule</title>
<polygon fill="#8dd3c7" stroke="black" points="322.26,-160.8 319.26,-164.8 298.26,-164.8 295.26,-160.8 235.74,-160.8 235.74,-124.8 322.26,-124.8 322.26,-160.8"/>
<text text-anchor="middle" x="279" y="-138.6" font-family="Times,serif" font-size="14.00">CoreModule</text>
</g>
<!-- CoreModule&#45;&gt;AppBrowserModule -->
<g id="edge3" class="edge">
<title>CoreModule&#45;&gt;AppBrowserModule</title>
<path fill="none" stroke="black" d="M250.08,-160.91C250.08,-160.91 250.08,-179.79 250.08,-179.79"/>
<polygon fill="black" stroke="black" points="246.58,-179.79 250.08,-189.79 253.58,-179.79 246.58,-179.79"/>
</g>
<!-- CoreModule&#45;&gt;AppServerModule -->
<g id="edge6" class="edge">
<title>CoreModule&#45;&gt;AppServerModule</title>
<path fill="none" stroke="black" d="M310.93,-160.82C310.93,-178.17 310.93,-201.8 310.93,-201.8 310.93,-201.8 343.74,-201.8 343.74,-201.8"/>
<polygon fill="black" stroke="black" points="343.74,-205.3 353.74,-201.8 343.74,-198.3 343.74,-205.3"/>
</g>
<!-- AppComponent  -->
<g id="node5" class="node">
<title>AppComponent </title>
<polygon fill="#80b1d3" stroke="black" points="299.44,-290.8 190.56,-290.8 190.56,-254.8 299.44,-254.8 299.44,-290.8"/>
<text text-anchor="middle" x="245" y="-268.6" font-family="Times,serif" font-size="14.00">AppComponent </text>
</g>
<!-- AppBrowserModule&#45;&gt;AppComponent  -->
<g id="edge4" class="edge">
<title>AppBrowserModule&#45;&gt;AppComponent </title>
<path fill="none" stroke="black" stroke-dasharray="1,5" d="M227.54,-225.91C227.54,-225.91 227.54,-244.79 227.54,-244.79"/>
<polygon fill="black" stroke="black" points="224.04,-244.79 227.54,-254.79 231.04,-244.79 224.04,-244.79"/>
</g>
<!-- AppServerModule&#45;&gt;AppComponent  -->
<g id="edge7" class="edge">
<title>AppServerModule&#45;&gt;AppComponent </title>
<path fill="none" stroke="black" stroke-dasharray="1,5" d="M353.8,-213.8C318.98,-213.8 282,-213.8 282,-213.8 282,-213.8 282,-244.78 282,-244.78"/>
<polygon fill="black" stroke="black" points="278.5,-244.78 282,-254.78 285.5,-244.78 278.5,-244.78"/>
</g>
<!-- AppComponent -->
<g id="node7" class="node">
<title>AppComponent</title>
<polygon fill="#ffffb3" stroke="black" points="331.94,-84.8 226.06,-84.8 226.06,-48.8 331.94,-48.8 331.94,-84.8"/>
<text text-anchor="middle" x="279" y="-62.6" font-family="Times,serif" font-size="14.00">AppComponent</text>
</g>
<!-- AppComponent&#45;&gt;CoreModule -->
<g id="edge8" class="edge">
<title>AppComponent&#45;&gt;CoreModule</title>
<path fill="none" stroke="black" d="M279,-84.81C279,-84.81 279,-114.65 279,-114.65"/>
<polygon fill="black" stroke="black" points="275.5,-114.65 279,-124.65 282.5,-114.65 275.5,-114.65"/>
</g>
</g>
</svg>
