<?xml version="1.0" encoding="UTF-8" standalone="no"?>
<!DOCTYPE svg PUBLIC "-//W3C//DTD SVG 1.1//EN"
 "http://www.w3.org/Graphics/SVG/1.1/DTD/svg11.dtd">
<!-- Generated by graphviz version 2.47.3 (20210619.1520)
 -->
<!-- Title: dependencies Pages: 1 -->
<svg width="354pt" height="247pt"
 viewBox="0.00 0.00 354.00 246.80" xmlns="http://www.w3.org/2000/svg" xmlns:xlink="http://www.w3.org/1999/xlink">
<g id="graph0" class="graph" transform="scale(1 1) rotate(0) translate(4 242.8)">
<title>dependencies</title>
<polygon fill="white" stroke="transparent" points="-4,4 -4,-242.8 350,-242.8 350,4 -4,4"/>
<text text-anchor="middle" x="173" y="-8.2" font-family="sans-serif" font-size="14.00">dependencies</text>
<g id="clust1" class="cluster">
<title>cluster_AppBrowserModule</title>
<polygon fill="none" stroke="black" stroke-dasharray="1,5" points="8,-32.8 8,-230.8 338,-230.8 338,-32.8 8,-32.8"/>
</g>
<g id="clust3" class="cluster">
<title>cluster_AppBrowserModule_imports</title>
<polygon fill="none" stroke="black" points="16,-40.8 16,-92.8 330,-92.8 330,-40.8 16,-40.8"/>
</g>
<g id="clust5" class="cluster">
<title>cluster_AppBrowserModule_bootstrap</title>
<polygon fill="none" stroke="black" points="108,-170.8 108,-222.8 232,-222.8 232,-170.8 108,-170.8"/>
</g>
<!-- !environment -->
<g id="node1" class="node">
<title>!environment</title>
<polygon fill="#8dd3c7" stroke="black" points="321.92,-84.8 318.92,-88.8 297.92,-88.8 294.92,-84.8 230.08,-84.8 230.08,-48.8 321.92,-48.8 321.92,-84.8"/>
<text text-anchor="middle" x="276" y="-62.6" font-family="Times,serif" font-size="14.00">!environment</text>
</g>
<!-- AppBrowserModule -->
<g id="node4" class="node">
<title>AppBrowserModule</title>
<polygon fill="#8dd3c7" stroke="black" points="235.58,-149.8 232.58,-153.8 211.58,-153.8 208.58,-149.8 104.42,-149.8 104.42,-113.8 235.58,-113.8 235.58,-149.8"/>
<text text-anchor="middle" x="170" y="-127.6" font-family="Times,serif" font-size="14.00">AppBrowserModule</text>
</g>
<!-- !environment&#45;&gt;AppBrowserModule -->
<g id="edge1" class="edge">
<title>!environment&#45;&gt;AppBrowserModule</title>
<path fill="none" stroke="black" d="M230.13,-66.8C224.71,-66.8 221.06,-66.8 221.06,-66.8 221.06,-66.8 221.06,-103.69 221.06,-103.69"/>
<polygon fill="black" stroke="black" points="217.56,-103.69 221.06,-113.69 224.56,-103.69 217.56,-103.69"/>
</g>
<!-- AppModule -->
<g id="node2" class="node">
<title>AppModule</title>
<polygon fill="#8dd3c7" stroke="black" points="211.66,-84.8 208.66,-88.8 187.66,-88.8 184.66,-84.8 128.34,-84.8 128.34,-48.8 211.66,-48.8 211.66,-84.8"/>
<text text-anchor="middle" x="170" y="-62.6" font-family="Times,serif" font-size="14.00">AppModule</text>
</g>
<!-- AppModule&#45;&gt;AppBrowserModule -->
<g id="edge2" class="edge">
<title>AppModule&#45;&gt;AppBrowserModule</title>
<path fill="none" stroke="black" d="M170,-84.91C170,-84.91 170,-103.79 170,-103.79"/>
<polygon fill="black" stroke="black" points="166.5,-103.79 170,-113.79 173.5,-103.79 166.5,-103.79"/>
</g>
<!-- CoreModule -->
<g id="node3" class="node">
<title>CoreModule</title>
<polygon fill="#8dd3c7" stroke="black" points="110.26,-84.8 107.26,-88.8 86.26,-88.8 83.26,-84.8 23.74,-84.8 23.74,-48.8 110.26,-48.8 110.26,-84.8"/>
<text text-anchor="middle" x="67" y="-62.6" font-family="Times,serif" font-size="14.00">CoreModule</text>
</g>
<!-- CoreModule&#45;&gt;AppBrowserModule -->
<g id="edge3" class="edge">
<title>CoreModule&#45;&gt;AppBrowserModule</title>
<path fill="none" stroke="black" d="M110.64,-66.8C115.8,-66.8 119.28,-66.8 119.28,-66.8 119.28,-66.8 119.28,-103.69 119.28,-103.69"/>
<polygon fill="black" stroke="black" points="115.78,-103.69 119.28,-113.69 122.78,-103.69 115.78,-103.69"/>
</g>
<!-- AppComponent  -->
<g id="node5" class="node">
<title>AppComponent </title>
<polygon fill="#80b1d3" stroke="black" points="224.44,-214.8 115.56,-214.8 115.56,-178.8 224.44,-178.8 224.44,-214.8"/>
<text text-anchor="middle" x="170" y="-192.6" font-family="Times,serif" font-size="14.00">AppComponent </text>
</g>
<!-- AppBrowserModule&#45;&gt;AppComponent  -->
<g id="edge4" class="edge">
<title>AppBrowserModule&#45;&gt;AppComponent </title>
<path fill="none" stroke="black" stroke-dasharray="1,5" d="M170,-149.91C170,-149.91 170,-168.79 170,-168.79"/>
<polygon fill="black" stroke="black" points="166.5,-168.79 170,-178.79 173.5,-168.79 166.5,-168.79"/>
</g>
</g>
</svg>
