<?xml version="1.0" encoding="UTF-8" standalone="no"?>
<!DOCTYPE svg PUBLIC "-//W3C//DTD SVG 1.1//EN"
 "http://www.w3.org/Graphics/SVG/1.1/DTD/svg11.dtd">
<!-- Generated by graphviz version 2.47.3 (20210619.1520)
 -->
<!-- Title: dependencies Pages: 1 -->
<svg width="244pt" height="247pt"
 viewBox="0.00 0.00 244.00 246.80" xmlns="http://www.w3.org/2000/svg" xmlns:xlink="http://www.w3.org/1999/xlink">
<g id="graph0" class="graph" transform="scale(1 1) rotate(0) translate(4 242.8)">
<title>dependencies</title>
<polygon fill="white" stroke="transparent" points="-4,4 -4,-242.8 240,-242.8 240,4 -4,4"/>
<text text-anchor="middle" x="118" y="-8.2" font-family="sans-serif" font-size="14.00">dependencies</text>
<g id="clust1" class="cluster">
<title>cluster_AppServerModule</title>
<polygon fill="none" stroke="black" stroke-dasharray="1,5" points="8,-32.8 8,-230.8 228,-230.8 228,-32.8 8,-32.8"/>
</g>
<g id="clust3" class="cluster">
<title>cluster_AppServerModule_imports</title>
<polygon fill="none" stroke="black" points="16,-40.8 16,-92.8 220,-92.8 220,-40.8 16,-40.8"/>
</g>
<g id="clust5" class="cluster">
<title>cluster_AppServerModule_bootstrap</title>
<polygon fill="none" stroke="black" points="56,-170.8 56,-222.8 180,-222.8 180,-170.8 56,-170.8"/>
</g>
<!-- AppModule -->
<g id="node1" class="node">
<title>AppModule</title>
<polygon fill="#8dd3c7" stroke="black" points="211.66,-84.8 208.66,-88.8 187.66,-88.8 184.66,-84.8 128.34,-84.8 128.34,-48.8 211.66,-48.8 211.66,-84.8"/>
<text text-anchor="middle" x="170" y="-62.6" font-family="Times,serif" font-size="14.00">AppModule</text>
</g>
<!-- AppServerModule -->
<g id="node3" class="node">
<title>AppServerModule</title>
<polygon fill="#8dd3c7" stroke="black" points="178.19,-149.8 175.19,-153.8 154.19,-153.8 151.19,-149.8 57.81,-149.8 57.81,-113.8 178.19,-113.8 178.19,-149.8"/>
<text text-anchor="middle" x="118" y="-127.6" font-family="Times,serif" font-size="14.00">AppServerModule</text>
</g>
<!-- AppModule&#45;&gt;AppServerModule -->
<g id="edge1" class="edge">
<title>AppModule&#45;&gt;AppServerModule</title>
<path fill="none" stroke="black" d="M153.13,-84.91C153.13,-84.91 153.13,-103.79 153.13,-103.79"/>
<polygon fill="black" stroke="black" points="149.63,-103.79 153.13,-113.79 156.63,-103.79 149.63,-103.79"/>
</g>
<!-- CoreModule -->
<g id="node2" class="node">
<title>CoreModule</title>
<polygon fill="#8dd3c7" stroke="black" points="110.26,-84.8 107.26,-88.8 86.26,-88.8 83.26,-84.8 23.74,-84.8 23.74,-48.8 110.26,-48.8 110.26,-84.8"/>
<text text-anchor="middle" x="67" y="-62.6" font-family="Times,serif" font-size="14.00">CoreModule</text>
</g>
<!-- CoreModule&#45;&gt;AppServerModule -->
<g id="edge2" class="edge">
<title>CoreModule&#45;&gt;AppServerModule</title>
<path fill="none" stroke="black" d="M84.14,-84.91C84.14,-84.91 84.14,-103.79 84.14,-103.79"/>
<polygon fill="black" stroke="black" points="80.64,-103.79 84.14,-113.79 87.64,-103.79 80.64,-103.79"/>
</g>
<!-- AppComponent  -->
<g id="node4" class="node">
<title>AppComponent </title>
<polygon fill="#80b1d3" stroke="black" points="172.44,-214.8 63.56,-214.8 63.56,-178.8 172.44,-178.8 172.44,-214.8"/>
<text text-anchor="middle" x="118" y="-192.6" font-family="Times,serif" font-size="14.00">AppComponent </text>
</g>
<!-- AppServerModule&#45;&gt;AppComponent  -->
<g id="edge3" class="edge">
<title>AppServerModule&#45;&gt;AppComponent </title>
<path fill="none" stroke="black" stroke-dasharray="1,5" d="M118,-149.91C118,-149.91 118,-168.79 118,-168.79"/>
<polygon fill="black" stroke="black" points="114.5,-168.79 118,-178.79 121.5,-168.79 114.5,-168.79"/>
</g>
</g>
</svg>
