<?xml version="1.0" encoding="UTF-8" standalone="no"?>
<!DOCTYPE svg PUBLIC "-//W3C//DTD SVG 1.1//EN"
 "http://www.w3.org/Graphics/SVG/1.1/DTD/svg11.dtd">
<!-- Generated by graphviz version 2.47.3 (20210619.1520)
 -->
<!-- Title: dependencies Pages: 1 -->
<svg width="1000pt" height="250pt"
 viewBox="0.00 0.00 1000.00 249.80" xmlns="http://www.w3.org/2000/svg" xmlns:xlink="http://www.w3.org/1999/xlink">
<g id="graph0" class="graph" transform="scale(1 1) rotate(0) translate(4 245.8)">
<title>dependencies</title>
<polygon fill="white" stroke="transparent" points="-4,4 -4,-245.8 996,-245.8 996,4 -4,4"/>
<text text-anchor="middle" x="496" y="-8.2" font-family="sans-serif" font-size="14.00">dependencies</text>
<g id="clust1" class="cluster">
<title>cluster_AppModule</title>
<polygon fill="none" stroke="black" stroke-dasharray="1,5" points="584,-32.8 584,-233.8 716,-233.8 716,-32.8 584,-32.8"/>
</g>
<g id="clust3" class="cluster">
<title>cluster_AppModule_imports</title>
<polygon fill="none" stroke="black" points="592,-40.8 592,-168.8 700,-168.8 700,-40.8 592,-40.8"/>
</g>
<g id="clust7" class="cluster">
<title>cluster_AuthModule</title>
<polygon fill="none" stroke="black" stroke-dasharray="1,5" points="8,-32.8 8,-100.8 576,-100.8 576,-32.8 8,-32.8"/>
</g>
<g id="clust10" class="cluster">
<title>cluster_AuthModule_exports</title>
<polygon fill="none" stroke="black" points="462,-40.8 462,-92.8 568,-92.8 568,-40.8 462,-40.8"/>
</g>
<g id="clust12" class="cluster">
<title>cluster_AuthModule_providers</title>
<polygon fill="none" stroke="black" points="16,-40.8 16,-92.8 454,-92.8 454,-40.8 16,-40.8"/>
</g>
<g id="clust13" class="cluster">
<title>cluster_UsersModule</title>
<polygon fill="none" stroke="black" stroke-dasharray="1,5" points="724,-108.8 724,-176.8 984,-176.8 984,-108.8 724,-108.8"/>
</g>
<g id="clust16" class="cluster">
<title>cluster_UsersModule_exports</title>
<polygon fill="none" stroke="black" points="872,-116.8 872,-168.8 976,-168.8 976,-116.8 872,-116.8"/>
</g>
<g id="clust18" class="cluster">
<title>cluster_UsersModule_providers</title>
<polygon fill="none" stroke="black" points="732,-116.8 732,-168.8 864,-168.8 864,-116.8 732,-116.8"/>
</g>
<!-- AuthModule -->
<g id="node1" class="node">
<title>AuthModule</title>
<polygon fill="#8dd3c7" stroke="black" points="687.55,-160.8 684.55,-164.8 663.55,-164.8 660.55,-160.8 600.45,-160.8 600.45,-124.8 687.55,-124.8 687.55,-160.8"/>
<text text-anchor="middle" x="644" y="-138.6" font-family="Times,serif" font-size="14.00">AuthModule</text>
</g>
<!-- AppModule -->
<g id="node3" class="node">
<title>AppModule</title>
<polygon fill="#8dd3c7" stroke="black" points="696.66,-225.8 693.66,-229.8 672.66,-229.8 669.66,-225.8 613.34,-225.8 613.34,-189.8 696.66,-189.8 696.66,-225.8"/>
<text text-anchor="middle" x="655" y="-203.6" font-family="Times,serif" font-size="14.00">AppModule</text>
</g>
<!-- AuthModule&#45;&gt;AppModule -->
<g id="edge1" class="edge">
<title>AuthModule&#45;&gt;AppModule</title>
<path fill="none" stroke="black" d="M650.47,-160.91C650.47,-160.91 650.47,-179.79 650.47,-179.79"/>
<polygon fill="black" stroke="black" points="646.97,-179.79 650.47,-189.79 653.97,-179.79 646.97,-179.79"/>
</g>
<!-- AuthService  -->
<g id="node4" class="node">
<title>AuthService </title>
<polygon fill="#fb8072" stroke="black" points="559.98,-84.8 470.02,-84.8 470.02,-48.8 559.98,-48.8 559.98,-84.8"/>
<text text-anchor="middle" x="515" y="-62.6" font-family="Times,serif" font-size="14.00">AuthService </text>
</g>
<!-- AuthModule&#45;&gt;AuthService  -->
<g id="edge4" class="edge">
<title>AuthModule&#45;&gt;AuthService </title>
<path fill="none" stroke="black" stroke-dasharray="5,2" d="M600.33,-132.8C562.9,-132.8 515,-132.8 515,-132.8 515,-132.8 515,-94.83 515,-94.83"/>
<polygon fill="black" stroke="black" points="518.5,-94.83 515,-84.83 511.5,-94.83 518.5,-94.83"/>
</g>
<!-- UsersModule -->
<g id="node2" class="node">
<title>UsersModule</title>
<polygon fill="#8dd3c7" stroke="black" points="691.92,-84.8 688.92,-88.8 667.92,-88.8 664.92,-84.8 600.08,-84.8 600.08,-48.8 691.92,-48.8 691.92,-84.8"/>
<text text-anchor="middle" x="646" y="-62.6" font-family="Times,serif" font-size="14.00">UsersModule</text>
</g>
<!-- UsersModule&#45;&gt;AuthModule -->
<g id="edge3" class="edge">
<title>UsersModule&#45;&gt;AuthModule</title>
<path fill="none" stroke="black" d="M644.03,-84.81C644.03,-84.81 644.03,-114.65 644.03,-114.65"/>
<polygon fill="black" stroke="black" points="640.53,-114.65 644.03,-124.65 647.53,-114.65 640.53,-114.65"/>
</g>
<!-- UsersModule&#45;&gt;AppModule -->
<g id="edge2" class="edge">
<title>UsersModule&#45;&gt;AppModule</title>
<path fill="none" stroke="black" d="M691.79,-75.8C706.14,-75.8 718.3,-75.8 718.3,-75.8 718.3,-75.8 718.3,-207.8 718.3,-207.8 718.3,-207.8 706.87,-207.8 706.87,-207.8"/>
<polygon fill="black" stroke="black" points="706.87,-204.3 696.87,-207.8 706.87,-211.3 706.87,-204.3"/>
</g>
<!-- UserService  -->
<g id="node8" class="node">
<title>UserService </title>
<polygon fill="#fb8072" stroke="black" points="967.9,-160.8 880.1,-160.8 880.1,-124.8 967.9,-124.8 967.9,-160.8"/>
<text text-anchor="middle" x="924" y="-138.6" font-family="Times,serif" font-size="14.00">UserService </text>
</g>
<!-- UsersModule&#45;&gt;UserService  -->
<g id="edge8" class="edge">
<title>UsersModule&#45;&gt;UserService </title>
<path fill="none" stroke="black" stroke-dasharray="5,2" d="M691.91,-57.8C770.87,-57.8 924,-57.8 924,-57.8 924,-57.8 924,-114.77 924,-114.77"/>
<polygon fill="black" stroke="black" points="920.5,-114.77 924,-124.77 927.5,-114.77 920.5,-114.77"/>
</g>
<!-- AuthService -->
<g id="node5" class="node">
<title>AuthService</title>
<ellipse fill="#fdb462" stroke="black" cx="387" cy="-66.8" rx="59.11" ry="18"/>
<text text-anchor="middle" x="387" y="-62.6" font-family="Times,serif" font-size="14.00">AuthService</text>
</g>
<!-- AuthService&#45;&gt;AuthModule -->
<g id="edge5" class="edge">
<title>AuthService&#45;&gt;AuthModule</title>
<path fill="none" stroke="black" d="M387,-84.84C387,-106.46 387,-139.8 387,-139.8 387,-139.8 590.4,-139.8 590.4,-139.8"/>
<polygon fill="black" stroke="black" points="590.4,-143.3 600.4,-139.8 590.4,-136.3 590.4,-143.3"/>
</g>
<!-- JwtStrategy -->
<g id="node6" class="node">
<title>JwtStrategy</title>
<ellipse fill="#fdb462" stroke="black" cx="253" cy="-66.8" rx="56.76" ry="18"/>
<text text-anchor="middle" x="253" y="-62.6" font-family="Times,serif" font-size="14.00">JwtStrategy</text>
</g>
<!-- JwtStrategy&#45;&gt;AuthModule -->
<g id="edge6" class="edge">
<title>JwtStrategy&#45;&gt;AuthModule</title>
<path fill="none" stroke="black" d="M253,-84.95C253,-108.56 253,-146.8 253,-146.8 253,-146.8 590.29,-146.8 590.29,-146.8"/>
<polygon fill="black" stroke="black" points="590.29,-150.3 600.29,-146.8 590.29,-143.3 590.29,-150.3"/>
</g>
<!-- PasswordService -->
<g id="node7" class="node">
<title>PasswordService</title>
<ellipse fill="#fdb462" stroke="black" cx="101" cy="-66.8" rx="77" ry="18"/>
<text text-anchor="middle" x="101" y="-62.6" font-family="Times,serif" font-size="14.00">PasswordService</text>
</g>
<!-- PasswordService&#45;&gt;AuthModule -->
<g id="edge7" class="edge">
<title>PasswordService&#45;&gt;AuthModule</title>
<path fill="none" stroke="black" d="M101,-84.83C101,-110.31 101,-153.8 101,-153.8 101,-153.8 590.02,-153.8 590.02,-153.8"/>
<polygon fill="black" stroke="black" points="590.02,-157.3 600.02,-153.8 590.02,-150.3 590.02,-157.3"/>
</g>
<!-- UserService -->
<g id="node9" class="node">
<title>UserService</title>
<ellipse fill="#fdb462" stroke="black" cx="798" cy="-142.8" rx="58.44" ry="18"/>
<text text-anchor="middle" x="798" y="-138.6" font-family="Times,serif" font-size="14.00">UserService</text>
</g>
<!-- UserService&#45;&gt;UsersModule -->
<g id="edge9" class="edge">
<title>UserService&#45;&gt;UsersModule</title>
<path fill="none" stroke="black" d="M798,-124.79C798,-102.31 798,-66.8 798,-66.8 798,-66.8 702.02,-66.8 702.02,-66.8"/>
<polygon fill="black" stroke="black" points="702.02,-63.3 692.02,-66.8 702.02,-70.3 702.02,-63.3"/>
</g>
</g>
</svg>
