<?xml version="1.0" encoding="UTF-8" standalone="no"?>
<!DOCTYPE svg PUBLIC "-//W3C//DTD SVG 1.1//EN"
 "http://www.w3.org/Graphics/SVG/1.1/DTD/svg11.dtd">
<!-- Generated by graphviz version 2.47.3 (20210619.1520)
 -->
<!-- Title: dependencies Pages: 1 -->
<svg width="250pt" height="247pt"
 viewBox="0.00 0.00 250.00 246.80" xmlns="http://www.w3.org/2000/svg" xmlns:xlink="http://www.w3.org/1999/xlink">
<g id="graph0" class="graph" transform="scale(1 1) rotate(0) translate(4 242.8)">
<title>dependencies</title>
<polygon fill="white" stroke="transparent" points="-4,4 -4,-242.8 246,-242.8 246,4 -4,4"/>
<text text-anchor="middle" x="121" y="-8.2" font-family="sans-serif" font-size="14.00">dependencies</text>
<g id="clust1" class="cluster">
<title>cluster_AppBrowserModule</title>
<polygon fill="none" stroke="black" stroke-dasharray="1,5" points="8,-32.8 8,-230.8 234,-230.8 234,-32.8 8,-32.8"/>
</g>
<g id="clust3" class="cluster">
<title>cluster_AppBrowserModule_imports</title>
<polygon fill="none" stroke="black" points="16,-40.8 16,-92.8 226,-92.8 226,-40.8 16,-40.8"/>
</g>
<g id="clust5" class="cluster">
<title>cluster_AppBrowserModule_bootstrap</title>
<polygon fill="none" stroke="black" points="59,-170.8 59,-222.8 183,-222.8 183,-170.8 59,-170.8"/>
</g>
<!-- !environment -->
<g id="node1" class="node">
<title>!environment</title>
<polygon fill="#8dd3c7" stroke="black" points="217.92,-84.8 214.92,-88.8 193.92,-88.8 190.92,-84.8 126.08,-84.8 126.08,-48.8 217.92,-48.8 217.92,-84.8"/>
<text text-anchor="middle" x="172" y="-62.6" font-family="Times,serif" font-size="14.00">!environment</text>
</g>
<!-- AppBrowserModule -->
<g id="node3" class="node">
<title>AppBrowserModule</title>
<polygon fill="#8dd3c7" stroke="black" points="186.58,-149.8 183.58,-153.8 162.58,-153.8 159.58,-149.8 55.42,-149.8 55.42,-113.8 186.58,-113.8 186.58,-149.8"/>
<text text-anchor="middle" x="121" y="-127.6" font-family="Times,serif" font-size="14.00">AppBrowserModule</text>
</g>
<!-- !environment&#45;&gt;AppBrowserModule -->
<g id="edge1" class="edge">
<title>!environment&#45;&gt;AppBrowserModule</title>
<path fill="none" stroke="black" d="M156.41,-84.91C156.41,-84.91 156.41,-103.79 156.41,-103.79"/>
<polygon fill="black" stroke="black" points="152.91,-103.79 156.41,-113.79 159.91,-103.79 152.91,-103.79"/>
</g>
<!-- AppModule -->
<g id="node2" class="node">
<title>AppModule</title>
<polygon fill="#8dd3c7" stroke="black" points="107.66,-84.8 104.66,-88.8 83.66,-88.8 80.66,-84.8 24.34,-84.8 24.34,-48.8 107.66,-48.8 107.66,-84.8"/>
<text text-anchor="middle" x="66" y="-62.6" font-family="Times,serif" font-size="14.00">AppModule</text>
</g>
<!-- AppModule&#45;&gt;AppBrowserModule -->
<g id="edge2" class="edge">
<title>AppModule&#45;&gt;AppBrowserModule</title>
<path fill="none" stroke="black" d="M81.64,-84.91C81.64,-84.91 81.64,-103.79 81.64,-103.79"/>
<polygon fill="black" stroke="black" points="78.14,-103.79 81.64,-113.79 85.14,-103.79 78.14,-103.79"/>
</g>
<!-- AppComponent  -->
<g id="node4" class="node">
<title>AppComponent </title>
<polygon fill="#80b1d3" stroke="black" points="175.44,-214.8 66.56,-214.8 66.56,-178.8 175.44,-178.8 175.44,-214.8"/>
<text text-anchor="middle" x="121" y="-192.6" font-family="Times,serif" font-size="14.00">AppComponent </text>
</g>
<!-- AppBrowserModule&#45;&gt;AppComponent  -->
<g id="edge3" class="edge">
<title>AppBrowserModule&#45;&gt;AppComponent </title>
<path fill="none" stroke="black" stroke-dasharray="1,5" d="M121,-149.91C121,-149.91 121,-168.79 121,-168.79"/>
<polygon fill="black" stroke="black" points="117.5,-168.79 121,-178.79 124.5,-168.79 117.5,-168.79"/>
</g>
</g>
</svg>
